<?xml version="1.0" standalone="no"?>
<!DOCTYPE svg PUBLIC "-//W3C//DTD SVG 20010904//EN"
 "http://www.w3.org/TR/2001/REC-SVG-20010904/DTD/svg10.dtd">
<svg version="1.0" xmlns="http://www.w3.org/2000/svg"
 width="534.000000pt" height="534.000000pt" viewBox="0 0 534.000000 534.000000"
 preserveAspectRatio="xMidYMid meet">
<metadata>
Created by potrace 1.14, written by Peter Selinger 2001-2017
</metadata>
<g transform="translate(0.000000,534.000000) scale(0.100000,-0.100000)"
fill="#000000" stroke="none">
<path d="M0 2670 l0 -2670 2670 0 2670 0 0 2670 0 2670 -2670 0 -2670 0 0
-2670z m1885 1810 c-3 -5 -11 -10 -16 -10 -6 0 -7 5 -4 10 3 6 11 10 16 10 6
0 7 -4 4 -10z m75 -28 c0 -15 -2 -15 -10 -2 -13 20 -13 33 0 25 6 -3 10 -14
10 -23z m1475 -2 c0 -22 -5 -25 -40 -28 -28 -3 -43 1 -51 13 -23 30 -6 46 45
43 42 -3 46 -5 46 -28z m-1505 6 c0 -2 -9 -6 -20 -9 -11 -3 -20 -1 -20 4 0 5
9 9 20 9 11 0 20 -2 20 -4z m180 -16 c0 -11 -4 -20 -10 -20 -5 0 -10 9 -10 20
0 11 5 20 10 20 6 0 10 -9 10 -20z m78 3 c-4 -24 -38 -26 -38 -2 0 13 7 19 21
19 14 0 19 -5 17 -17z m112 -3 c0 -12 -7 -20 -17 -20 -15 0 -16 2 -3 10 8 5
11 10 7 10 -5 0 -5 5 -2 10 10 16 15 12 15 -10z m190 -11 c0 -12 -5 -16 -15
-13 -8 4 -15 15 -15 25 0 12 5 16 15 13 8 -4 15 -15 15 -25z m-259 12 c7 11 9
10 9 -3 0 -10 -7 -18 -15 -18 -8 0 -15 8 -14 18 0 12 2 13 6 3 5 -11 7 -11 14
0z m101 0 c8 12 9 12 6 0 -6 -22 -28 -25 -27 -4 0 12 2 14 6 4 5 -11 7 -11 15
0z m32 -6 c3 -8 1 -15 -4 -15 -6 0 -10 7 -10 15 0 8 2 15 4 15 2 0 6 -7 10
-15z m46 0 c0 -6 -7 -12 -15 -12 -8 0 -15 6 -15 12 0 6 7 12 15 12 8 0 15 -6
15 -12z m40 0 c0 -8 -7 -15 -15 -15 -8 0 -15 7 -15 15 0 8 7 15 15 15 8 0 15
-7 15 -15z m70 5 c10 15 40 6 40 -12 0 -10 -2 -10 -9 1 -6 9 -11 10 -15 2 -11
-17 -36 -13 -35 7 0 12 2 13 6 3 4 -10 7 -11 13 -1z m1509 -19 c14 -9 9 -41
-6 -41 -19 1 -35 19 -30 34 7 18 16 20 36 7z m-2056 -328 c12 -27 -1 -46 -39
-57 -27 -8 -68 33 -58 58 15 40 78 39 97 -1z m1971 -4 c16 -39 10 -69 -15 -70
-11 -1 -24 -2 -31 -3 -18 -2 -28 50 -15 79 17 35 45 32 61 -6z m-76 -37 c2 -7
-2 -10 -12 -6 -9 3 -16 11 -16 16 0 13 23 5 28 -10z m-2783 0 c6 -4 11 -18 12
-32 1 -14 -1 -19 -4 -12 -6 15 -47 16 -74 2 -16 -9 -19 -7 -19 8 0 10 5 23 12
30 13 13 57 16 73 4z m805 -33 c0 -5 -7 -9 -15 -9 -9 0 -15 9 -15 21 0 18 2
19 15 9 8 -7 15 -16 15 -21z m2251 21 c31 -17 18 -70 -17 -70 -14 0 -44 27
-44 40 0 9 28 40 36 40 3 0 14 -5 25 -10z m-2861 -36 c0 -8 -4 -12 -10 -9 -5
3 -10 10 -10 16 0 5 5 9 10 9 6 0 10 -7 10 -16z m57 1 c0 -7 -6 -12 -13 -12
-7 0 -15 5 -17 12 -3 6 3 11 12 11 10 0 18 -5 18 -11z m2113 -29 c0 -2 -7 -6
-15 -10 -8 -3 -15 -1 -15 4 0 6 7 10 15 10 8 0 15 -2 15 -4z m586 -37 c14 -15
16 -24 8 -37 -23 -36 -74 -21 -74 23 0 41 35 48 66 14z m-112 -25 c8 -21 8
-24 -3 -24 -5 0 -11 9 -14 20 -6 24 8 27 17 4z m136 -38 c0 -3 -4 -8 -10 -11
-5 -3 -10 -1 -10 4 0 6 5 11 10 11 6 0 10 -2 10 -4z m-294 -18 c4 -6 3 -8 -3
-5 -5 3 -22 0 -37 -8 -14 -8 -24 -10 -20 -4 5 8 27 20 51 28 1 1 5 -4 9 -11z
m-1197 -45 c0 -11 -3 -13 -6 -5 -2 6 -10 9 -15 6 -7 -4 -8 -2 -4 4 11 18 26
14 25 -5z m1271 1 c0 -8 -4 -12 -10 -9 -5 3 -10 10 -10 16 0 5 5 9 10 9 6 0
10 -7 10 -16z m-1030 -25 c0 -5 -4 -9 -10 -9 -5 0 -10 7 -10 16 0 8 5 12 10 9
6 -3 10 -10 10 -16z m1439 -1 c11 -30 6 -38 -25 -38 -26 0 -33 27 -12 48 18
18 28 15 37 -10z m-2619 -7 c0 -12 -20 -25 -27 -18 -7 7 6 27 18 27 5 0 9 -4
9 -9z m2388 -2 c-2 -6 -8 -10 -13 -10 -5 0 -11 4 -13 10 -2 6 4 11 13 11 9 0
15 -5 13 -11z m-213 -19 c3 -5 1 -10 -4 -10 -6 0 -11 5 -11 10 0 6 2 10 4 10
3 0 8 -4 11 -10z m-2752 -7 c-13 -2 -35 -2 -50 0 -16 2 -5 4 22 4 28 0 40 -2
28 -4z m244 -18 c0 -8 -4 -12 -9 -9 -5 3 -6 10 -3 15 9 13 12 11 12 -6z m408
5 c3 -5 -1 -10 -10 -10 -9 0 -13 5 -10 10 3 6 8 10 10 10 2 0 7 -4 10 -10z
m900 0 c3 -5 1 -10 -4 -10 -6 0 -11 5 -11 10 0 6 2 10 4 10 3 0 8 -4 11 -10z
m1075 -12 c0 -5 -4 -7 -8 -4 -5 3 -26 -6 -46 -20 l-38 -26 17 26 c10 15 25 30
33 35 18 10 42 4 42 -11z m215 12 c3 -5 1 -10 -4 -10 -6 0 -11 5 -11 10 0 6 2
10 4 10 3 0 8 -4 11 -10z m-339 -15 c-11 -8 -24 -15 -30 -15 -5 0 -1 7 10 15
10 8 24 14 29 14 6 0 1 -6 -9 -14z m-2508 -2 c-10 -2 -28 -2 -40 0 -13 2 -5 4
17 4 22 1 32 -1 23 -4z m2300 -31 c2 -7 -3 -12 -12 -12 -9 0 -16 7 -16 16 0
17 22 14 28 -4z m395 -2 c-3 -12 -8 -19 -11 -16 -5 6 5 36 12 36 2 0 2 -9 -1
-20z m549 -6 c23 -50 -24 -83 -61 -43 -12 13 -21 17 -21 11 0 -7 -7 -12 -15
-12 -9 0 -15 9 -15 23 0 17 8 26 33 34 52 17 67 15 79 -13z m-708 -40 c3 -8 3
-21 -1 -27 -4 -7 9 2 29 19 24 21 45 31 67 30 17 -1 30 -5 29 -11 -2 -5 -15
-9 -30 -9 -30 2 -35 -5 -16 -24 9 -9 4 -13 -21 -18 -19 -4 -30 -12 -27 -19 4
-12 -21 -38 -43 -43 -7 -1 -18 4 -26 11 -26 26 -145 -18 -128 -47 3 -6 2 -7
-2 -3 -5 4 -10 15 -11 23 -1 9 0 14 3 11 4 -5 27 11 60 42 7 7 12 15 10 17 -7
7 -53 -13 -70 -30 -14 -15 -16 -14 -22 5 -9 27 18 56 71 74 40 14 71 4 57 -18
-3 -6 -1 -7 5 -3 7 4 12 2 12 -4 0 -6 4 -9 9 -5 16 10 8 44 -12 49 -10 2 -16
9 -12 15 8 14 60 -12 69 -35z m186 26 c0 -5 -5 -10 -11 -10 -5 0 -7 5 -4 10 3
6 8 10 11 10 2 0 4 -4 4 -10z m-490 -40 c0 -5 -2 -10 -4 -10 -3 0 -8 5 -11 10
-3 6 -1 10 4 10 6 0 11 -4 11 -10z m-170 -10 c0 -5 -7 -10 -15 -10 -8 0 -15 5
-15 10 0 6 7 10 15 10 8 0 15 -4 15 -10z m207 -12 c-3 -8 -6 -5 -6 6 -1 11 2
17 5 13 3 -3 4 -12 1 -19z m-1257 8 c0 -2 -7 -7 -16 -10 -8 -3 -12 -2 -9 4 6
10 25 14 25 6z m34 -11 c-4 -8 -10 -15 -15 -15 -4 0 -6 7 -3 15 4 8 10 15 15
15 4 0 6 -7 3 -15z m1144 -3 c2 -7 -2 -10 -12 -6 -9 3 -16 11 -16 16 0 13 23
5 28 -10z m502 -2 c24 -15 7 -18 -20 -3 -14 7 -18 13 -10 13 8 0 22 -4 30 -10z
m64 4 c24 -9 19 -19 -9 -20 -24 -2 -32 6 -18 19 8 8 8 8 27 1z m-839 -32 c177
-48 376 -176 454 -293 38 -56 91 -196 91 -238 0 -10 -9 -26 -19 -35 -19 -17
-20 -17 -36 8 -10 14 -25 26 -34 26 -9 0 -26 6 -37 14 -11 8 -40 17 -65 21
-57 8 -109 26 -103 36 3 5 -13 17 -34 28 -22 11 -51 34 -65 51 -14 16 -34 30
-45 30 -11 0 -28 12 -38 26 -43 59 -52 67 -77 70 -31 3 -87 42 -87 61 0 15
-31 33 -58 33 -11 0 -22 7 -26 15 -7 19 -106 22 -106 3 0 -10 -2 -10 -8 -1
-10 16 -44 5 -164 -51 -58 -27 -89 -47 -92 -61 -5 -16 -8 -17 -15 -6 -20 30
-116 -29 -135 -83 -5 -14 -10 -16 -18 -8 -8 8 -17 6 -35 -8 -44 -34 -84 -92
-77 -112 3 -10 1 -18 -4 -18 -6 0 -12 5 -14 11 -6 19 -38 -3 -38 -26 0 -29
-17 -42 -23 -18 -3 10 -5 3 -6 -16 -1 -31 0 -33 12 -17 7 10 21 17 30 15 14
-3 10 -14 -24 -58 -31 -41 -38 -56 -27 -62 9 -6 6 -9 -10 -9 -30 0 -82 -30
-82 -47 0 -18 -11 -16 -40 7 -24 18 -25 24 -30 167 -6 170 -13 188 -83 225
-31 16 -60 22 -109 22 -66 1 -67 1 -45 18 29 23 94 45 187 64 179 36 368 101
414 142 10 9 27 37 37 61 l19 43 293 -5 c257 -4 302 -7 372 -25z m818 -43 c7
-25 3 -24 -17 6 -13 19 -13 23 -2 19 8 -3 16 -14 19 -25z m-459 -5 c17 -6 22
-24 8 -24 -5 0 -17 7 -28 15 -19 15 -8 20 20 9z m-1986 -52 c2 -7 -3 -12 -12
-12 -9 0 -16 7 -16 16 0 17 22 14 28 -4z m80 -17 c-11 -24 -28 -34 -28 -16 0
21 13 41 26 41 11 0 11 -5 2 -25z m2237 -44 c-3 -2 -10 0 -16 6 -16 16 -89
-15 -89 -39 0 -10 -6 -18 -12 -18 -16 0 -41 52 -30 59 5 3 11 14 15 24 4 10
11 15 17 12 5 -3 20 1 32 9 21 15 24 14 55 -16 18 -17 30 -34 28 -37z m-2184
36 c-13 -13 -26 -3 -16 12 3 6 11 8 17 5 6 -4 6 -10 -1 -17z m1929 19 c0 -3
-4 -8 -10 -11 -5 -3 -10 -1 -10 4 0 6 5 11 10 11 6 0 10 -2 10 -4z m-1695 -46
c3 -6 -4 -10 -17 -10 -18 0 -20 2 -8 10 19 12 18 12 25 0z m-225 -10 c0 -5 -7
-7 -15 -4 -8 4 -15 8 -15 10 0 2 7 4 15 4 8 0 15 -4 15 -10z m404 -17 c3 -7 2
-13 -3 -13 -5 0 -14 6 -20 13 -8 10 -7 14 4 14 8 0 16 -6 19 -14z m-604 -44
c0 -5 -4 -9 -10 -9 -5 0 -10 7 -10 16 0 8 5 12 10 9 6 -3 10 -10 10 -16z m220
-4 c-27 -29 -37 -27 -20 4 6 12 18 21 27 21 13 0 12 -5 -7 -25z m2583 5 c3
-11 1 -18 -4 -14 -5 3 -9 12 -9 20 0 20 7 17 13 -6z m-473 -32 c0 -7 -4 -19
-9 -26 -7 -11 -10 -10 -15 3 -10 26 -7 35 9 35 8 0 15 -6 15 -12z m40 -33 c-7
-9 -15 -13 -19 -10 -3 3 1 10 9 15 21 14 24 12 10 -5z m-2333 -20 c0 -8 -4
-12 -9 -9 -4 3 -8 9 -8 15 0 5 4 9 8 9 5 0 9 -7 9 -15z m-247 -25 c11 -11 20
-25 20 -31 0 -18 -20 -49 -32 -49 -9 0 -9 3 0 12 16 16 15 53 -2 67 -25 21
-59 -4 -54 -39 3 -20 1 -27 -9 -23 -30 12 2 83 38 83 10 0 28 -9 39 -20z m500
-31 c0 -5 -4 -9 -10 -9 -5 0 -10 7 -10 16 0 8 5 12 10 9 6 -3 10 -10 10 -16z
m1223 -9 c82 -26 155 -88 186 -160 63 -145 25 -383 -78 -489 -68 -70 -133 -92
-288 -99 l-123 -5 0 -154 c0 -132 2 -154 16 -160 15 -5 15 -7 0 -15 -11 -6
-16 -24 -16 -61 0 -113 -36 -259 -74 -300 -13 -14 -27 -35 -31 -46 -4 -12 -12
-18 -20 -14 -8 3 -12 10 -8 17 4 6 8 16 9 21 1 6 10 39 19 75 14 53 18 130 22
409 3 189 2 412 -2 496 -7 143 -8 152 -26 148 -13 -4 -19 0 -19 11 0 9 8 16
19 16 25 0 32 66 24 216 l-6 114 165 0 c138 0 177 -3 231 -20z m-1390 -18 c-3
-12 -10 -22 -15 -22 -5 0 -6 -4 -3 -10 3 -5 1 -10 -4 -10 -6 0 -11 -7 -11 -15
0 -18 -16 -20 -26 -3 -4 6 -2 14 4 16 7 2 12 10 12 18 0 8 5 14 10 14 6 0 10
7 10 16 0 8 5 12 10 9 6 -3 10 -1 10 6 0 7 2 10 5 8 2 -3 2 -15 -2 -27z m-61
3 c0 -5 -5 -11 -11 -13 -6 -2 -11 4 -11 13 0 9 5 15 11 13 6 -2 11 -8 11 -13z
m244 -52 c-10 -10 -19 5 -10 18 6 11 8 11 12 0 2 -7 1 -15 -2 -18z m-248 -74
c-2 -6 -8 -10 -13 -10 -5 0 -11 4 -13 10 -2 6 4 11 13 11 9 0 15 -5 13 -11z
m132 -10 c0 -14 -16 -11 -29 5 -10 12 -8 13 8 9 12 -3 21 -9 21 -14z m-113
-24 c0 -8 -4 -15 -9 -15 -10 0 -11 14 -1 23 9 10 10 9 10 -8z m1892 -4 c7 -5
12 -14 9 -21 -2 -7 -10 -4 -22 9 -19 21 -12 28 13 12z m77 -86 c3 -14 10 -22
15 -19 5 3 9 -5 9 -18 -1 -17 -12 -29 -48 -46 -50 -24 -82 -29 -82 -12 0 6 -6
10 -12 8 -13 -3 -18 3 -18 22 0 22 90 88 122 90 4 0 10 -11 14 -25z m-1896 5
c0 -5 -7 -10 -16 -10 -8 0 -12 5 -9 10 3 6 10 10 16 10 5 0 9 -4 9 -10z m3310
-88 c0 -13 -12 -22 -22 -16 -10 6 -1 24 13 24 5 0 9 -4 9 -8z m-3690 -212 c0
-38 -2 -40 -30 -40 -28 0 -30 2 -30 40 0 38 2 40 30 40 28 0 30 -2 30 -40z
m185 -20 c-18 -8 -18 -9 -2 -9 10 -1 17 -7 15 -13 -6 -18 -33 -16 -34 2 -1 23
5 30 24 29 14 0 13 -2 -3 -9z m92 -12 c-3 -8 -6 -5 -6 6 -1 11 2 17 5 13 3 -3
4 -12 1 -19z m-60 -10 c-3 -8 -6 -5 -6 6 -1 11 2 17 5 13 3 -3 4 -12 1 -19z
m107 5 c3 -7 1 -13 -3 -13 -5 0 -18 -3 -28 -6 -14 -4 -15 -4 -4 4 7 5 11 14 8
19 -3 5 0 10 8 10 8 0 16 -6 19 -14z m36 0 c0 -7 -4 -13 -9 -13 -5 0 -11 6
-14 13 -3 8 1 14 9 14 8 0 14 -6 14 -14z m1900 -367 c0 -2 -8 -10 -17 -17 -16
-13 -17 -12 -4 4 13 16 21 21 21 13z m995 -366 l20 -25 -22 19 c-23 19 -23 19
-45 0 -21 -17 -21 -16 1 9 14 15 25 26 25 24 1 -1 10 -13 21 -27z"/>
<path d="M2165 4440 c3 -5 8 -10 11 -10 2 0 4 5 4 10 0 6 -5 10 -11 10 -5 0
-7 -4 -4 -10z"/>
<path d="M1020 4040 c-13 -8 -12 -10 3 -10 9 0 17 5 17 10 0 12 -1 12 -20 0z"/>
<path d="M3522 3411 c-11 -7 -11 -9 2 -14 10 -4 16 -1 16 8 0 17 -1 17 -18 6z"/>
<path d="M2490 2841 l0 -331 88 0 c131 0 184 19 254 90 70 72 91 132 92 265 1
112 -13 160 -64 217 -57 65 -101 80 -247 86 l-123 4 0 -331z"/>
<path d="M1000 2660 c0 -5 9 -10 20 -10 11 0 20 5 20 10 0 6 -9 10 -20 10 -11
0 -20 -4 -20 -10z"/>
<path d="M1005 2629 c-4 -6 -4 -13 -1 -16 8 -8 36 5 36 17 0 13 -27 13 -35 -1z"/>
</g>
</svg>
